# Blender v2.81 (sub 16) OBJ File: ''
# www.blender.org
mtllib wall.mtl
o 平面.001
v -10.000000 0.000000 -10.000000
v 10.000000 0.000000 -10.000000
v -10.000000 5.000000 -10.000000
v 10.000000 5.000000 -10.000000
vt 0.000000 0.000000
vt 1.000000 0.000000
vt 1.000000 1.000000
vt 0.000000 1.000000
vn 0.0000 0.0000 1.0000
usemtl 材质.001
s off
f 1/1/1 2/2/1 4/3/1 3/4/1
o 平面.002
v -10.000000 0.000000 10.000000
v -10.000001 0.000000 -10.000000
v -9.999999 5.000000 10.000000
v -10.000000 5.000000 -10.000000
vt 0.000000 0.000000
vt 1.000000 0.000000
vt 1.000000 1.000000
vt 0.000000 1.000000
vn 1.0000 0.0000 -0.0000
usemtl 材质.001
s off
f 5/5/2 6/6/2 8/7/2 7/8/2
o 平面.003
v 10.000000 0.000000 10.000000
v 9.999999 0.000000 -10.000000
v 10.000001 5.000000 10.000000
v 10.000000 5.000000 -10.000000
vt 0.000000 0.000000
vt 1.000000 0.000000
vt 1.000000 1.000000
vt 0.000000 1.000000
vn 1.0000 0.0000 -0.0000
usemtl 材质.001
s off
f 9/9/3 10/10/3 12/11/3 11/12/3
o 平面.004
v -10.000000 0.000000 10.000000
v 10.000000 0.000000 10.000000
v -10.000000 5.000000 10.000000
v 10.000000 5.000000 10.000000
vt 0.000000 0.000000
vt 1.000000 0.000000
vt 1.000000 1.000000
vt 0.000000 1.000000
vn 0.0000 0.0000 1.0000
usemtl 材质.001
s off
f 13/13/4 14/14/4 16/15/4 15/16/4
